<?xml version="1.0" encoding="UTF-8"?>
<!-- Generator: Adobe Illustrator 22.0.1, SVG Export Plug-In . SVG Version: 6.00 Build 0)  -->
<svg version="1.1" xmlns="http://www.w3.org/2000/svg" xmlns:xlink="http://www.w3.org/1999/xlink" x="0px" y="0px" viewBox="0 0 92.2 88" style="enable-background:new 0 0 92.2 88;" xml:space="preserve">
<style type="text/css">
	.st0{fill:#BF8104;stroke:#000000;stroke-width:5.470819e-02;stroke-miterlimit:10;}
	.st1{opacity:0.32;fill:#BF8104;stroke:#000000;stroke-width:9.366825e-02;stroke-miterlimit:10;}
	.st2{opacity:0.32;fill:#BF8104;stroke:#000000;stroke-width:0.1788;stroke-miterlimit:10;}
	.st3{fill:#BF8104;stroke:#000000;stroke-width:0.1089;stroke-miterlimit:10;}
	.st4{opacity:0.69;fill:#BF8104;stroke:#000000;stroke-width:7.634275e-02;stroke-miterlimit:10;}
	.st5{opacity:0.69;fill:#BF8104;stroke:#000000;stroke-width:7.322612e-02;stroke-miterlimit:10;}
	.st6{opacity:0.69;fill:#BF8104;stroke:#000000;stroke-width:0.1457;stroke-miterlimit:10;}
	.st7{fill:#BF8104;stroke:#000000;stroke-width:0.1044;stroke-miterlimit:10;}
	.st8{fill:#FFFFFF;stroke:#FFFFFF;stroke-width:0.2188;stroke-miterlimit:10;}
	.st9{fill:#AD6F00;stroke:#FFFFFF;stroke-width:0.2188;stroke-miterlimit:10;}
	.st10{opacity:0.32;fill:#BF8104;stroke:#000000;stroke-width:0.1336;stroke-miterlimit:10;}
	.st11{fill:#FFFFFF;}
	.st12{opacity:0.15;fill:#FFFFFF;}
	.st13{opacity:0.2;fill:#FFFFFF;}
</style>
<g id="Layer_1">
	<path class="st0" d="M79.7,23.1"/>
	<path class="st0" d="M79.7,19.6"/>
	<path class="st0" d="M79.7,26.6"/>
	<path class="st0" d="M80,16.1"/>
	<path class="st1" d="M72.2,59.1"/>
	<path class="st1" d="M72.2,71.1"/>
	<path class="st1" d="M72.2,47.1"/>
	<path class="st1" d="M72.2,41.1"/>
	<path class="st1" d="M72.2,53.1"/>
	<path class="st1" d="M72.2,77.1"/>
	<path class="st1" d="M72.2,65.1"/>
	<path class="st2" d="M72.4,76.7"/>
	<path class="st3" d="M48.9,54.4"/>
	<path class="st4" d="M67.6,63.6"/>
	<path class="st4" d="M67.6,73.3"/>
	<path class="st4" d="M67.6,53.8"/>
	<path class="st4" d="M67.6,48.9"/>
	<path class="st5" d="M40.2,67.1"/>
	<path class="st4" d="M67.6,58.7"/>
	<path class="st4" d="M67.6,78.2"/>
	<path class="st4" d="M67.6,68.4"/>
	<path class="st4" d="M67.1,44"/>
	<path class="st5" d="M40.2,71.8"/>
	<path class="st4" d="M62.3,39.1"/>
	<path class="st5" d="M40.2,62.4"/>
	<path class="st6" d="M67.8,77.9"/>
	<path class="st0" d="M60.5,68.6"/>
	<path class="st0" d="M60.5,75.6"/>
	<path class="st0" d="M60.5,61.6"/>
	<path class="st0" d="M60.5,58.1"/>
	<path class="st0" d="M60.5,65.1"/>
	<path class="st0" d="M60.5,79.1"/>
	<path class="st0" d="M60.5,72.1"/>
	<path class="st0" d="M60.1,54.6"/>
	<path class="st0" d="M56.7,51.1"/>
	<path class="st0" d="M35.5,51.1"/>
	<path class="st0" d="M53.3,47.6"/>
	<path class="st0" d="M38.9,47.6"/>
	<path class="st7" d="M60.6,78.9"/>
	<path class="st8" d="M49.5,51.2"/>
	<path class="st8" d="M42.7,51.2"/>
	<g>
		<path class="st9" d="M41.2,72.2"/>
		<path class="st9" d="M41.2,62.5"/>
		<path class="st9" d="M44.5,67.4"/>
		<path class="st9" d="M37.8,67.4"/>
	</g>
	<path class="st5" d="M54.7,87.7"/>
	<path class="st5" d="M54.7,78.3"/>
	<path class="st5" d="M54.7,73.6"/>
	<path class="st5" d="M54.7,83"/>
	<path class="st5" d="M55.1,68.9"/>
	<path class="st5" d="M59.8,64.2"/>
	<path class="st10" d="M49.2,47.9"/>
	<path class="st1" d="M59.9,23.2"/>
	<g>
		<polygon class="st11" points="63.2,59.3 46.1,41.6 29,59.3 27.5,57.9 46.1,38.7 64.7,57.9   "/>
	</g>
	<polygon class="st11" points="46.1,41.6 60.5,56.5 60.5,55 60.5,54.6 60.1,54.6 46.1,40.2 32.1,54.6 31.7,54.6 31.7,55 31.7,56.5     "/>
	<g>
		<polygon class="st11" points="56.2,47.7 56.2,39.8 50.8,39.8 50.8,42.2   "/>
		<polygon class="st11" points="50.8,43.7 50.8,45.6 56.2,50.4 56.2,49.1   "/>
	</g>
	<g>
		<path class="st11" d="M0,88c15.1-3.2,30.6-4.6,46.1-4.6c7.7,0,15.5,0.4,23.2,1.1c7.7,0.7,15.4,1.9,22.9,3.5    c-7.7-0.8-15.4-1.4-23-1.9c-7.7-0.4-15.4-0.7-23.1-0.7c-7.7,0-15.4,0.2-23.1,0.7C15.4,86.6,7.7,87.2,0,88z"/>
	</g>
	<path class="st12" d="M65.1,19.9V2.1H55v7.3L46.1,0l-35,36.8l2.7,2.7l5.2-5.5v6.6v43c8.7-1,17.8-1.5,27-1.6c8,0,15.8,0.4,23.2,1.1   c1.3,0.1,2.5,0.3,3.8,0.4v-43V34l5.2,5.5l2.7-2.7L65.1,19.9z M44.5,70.3h-6.8v-8.8h6.8V70.3z M56.2,81.2h-7.1V61.4h7.1V81.2z"/>
	<path class="st13" d="M60.1,36.1V22.9h-7.4v5.4l-6.6-6.9L20.2,48.5l2,2l3.9-4v4.8v31.6c6.5-0.5,13.2-0.8,20-0.9   c6.8,0,13.6,0.3,20,0.8V51.3v-4.8l3.9,4l2-2L60.1,36.1z M44.5,70.3h-6.8v-8.8h6.8V70.3z M56.2,81.2h-7.1V61.4h7.1V81.2z"/>
	<path class="st11" d="M46.1,43.1L31.7,57.9v2v22.6c4.7-0.3,9.5-0.4,14.4-0.4c4.9,0,9.7,0.2,14.4,0.4V59.9v-2L46.1,43.1z M44.5,70.3   h-6.8v-8.8h6.8V70.3z M56.2,81.2h-7.1V61.4h7.1V81.2z"/>
</g>
<g id="Layer_2">
</g>
</svg>